<svg xmlns="http://www.w3.org/2000/svg" width="46" height="46" fill="none" viewBox="0 0 46 46">
  <circle cx="23" cy="23" r="23" fill="#CEE5D9"/>
  <path fill="#006D77" d="M21.277 29.74h-7.371a.193.193 0 0 1-.193-.192l.001-12.02h-.713L13 30.41h8.131a.98.98 0 0 1 .781.39.595.595 0 0 0 .475.237h.366a1.49 1.49 0 0 0-1.476-1.296Z"/>
  <path fill="#006D77" d="m20.621 29.129-5.26-1.276a.192.192 0 0 1-.146-.187V16.7h-1.117v12.657h7.17a4.778 4.778 0 0 0-.647-.228Z"/>
  <path fill="#006D77" d="M21.135 16.334c-1.28-.367-4.62-1.127-5.535-1.334l-.001 12.515 5.119 1.242c1.113.31 1.72.812 2.047 1.285l.001-11.966c-.019-.933-1.01-1.564-1.631-1.742Zm11.071 1.195-.001 12.02a.192.192 0 0 1-.192.192H24.64a1.49 1.49 0 0 0-1.476 1.296h.367a.595.595 0 0 0 .473-.237.982.982 0 0 1 .781-.39h8.132l.001-12.88-.713-.001Z"/>
  <path fill="#006D77" d="M24.647 29.356h7.173V16.701h-1.116v10.966a.192.192 0 0 1-.148.186l-5.265 1.277a4.84 4.84 0 0 0-.643.226Z"/>
  <path fill="#006D77" d="m25.194 28.758 5.125-1.243V15c-.914.207-4.255.967-5.535 1.334-.62.178-1.612.81-1.63 1.746l-.002 11.96c.328-.472.932-.974 2.042-1.282Z"/>
</svg>
