<svg xmlns="http://www.w3.org/2000/svg" width="100" height="100" fill="none" viewBox="0 0 100 100">
  <circle cx="50" cy="50" r="50" fill="#fff"/>
  <path fill="#101828" d="M49.729 25a23.148 23.148 0 0 0-23.12 23.12v3.509a6.837 6.837 0 0 0-4.24 6.327v8.837a6.84 6.84 0 0 0 6.84 6.84h2.366v-.055a4.596 4.596 0 0 0 7.893-3.18V54.35a4.597 4.597 0 0 0-7.92-3.18v-.056h-2.203V48.12a20.382 20.382 0 1 1 40.765 0v2.996h-2.216v.055a4.596 4.596 0 0 0-7.907 3.18v16.047a4.598 4.598 0 0 0 7.92 3.18v.055h2.34a6.84 6.84 0 0 0 6.84-6.84v-8.837a6.837 6.837 0 0 0-4.255-6.327V48.12A23.146 23.146 0 0 0 49.728 25ZM33.012 54.35a1.867 1.867 0 1 1 3.735 0v16.048a1.867 1.867 0 0 1-3.735 0V54.35Zm-2.736 16.54H29.21a4.104 4.104 0 0 1-4.104-4.103v-8.831a4.104 4.104 0 0 1 4.104-4.104h1.095a4.624 4.624 0 0 0 0 .5v16.046a4.616 4.616 0 0 0 0 .5l-.028-.008Zm36.136-.5v.001a1.867 1.867 0 1 1-3.735 0v-16.04a1.867 1.867 0 1 1 3.735 0v16.04Zm7.941-12.433v8.837a4.105 4.105 0 0 1-4.104 4.103h-1.094a4.614 4.614 0 0 0 0-.499V54.351a4.633 4.633 0 0 0 0-.5h1.094a4.102 4.102 0 0 1 4.104 4.105Z"/>
</svg>
