<svg xmlns="http://www.w3.org/2000/svg" width="100" height="100" fill="none" viewBox="0 0 100 100">
  <circle cx="50" cy="50" r="50" fill="#fff"/>
  <path fill="#101828" d="M63.653 57.074h4.934v1.645h-4.934v-1.645Zm-3.29 4.934h8.225v1.645h-8.225v-1.645Zm0 4.935h8.225v1.645h-8.225v-1.645ZM41.406 33.635a.823.823 0 0 0-.658-.552l-2.407-.367-1.083-2.309a.822.822 0 0 0-1.488 0l-1.085 2.31-2.407.368a.823.823 0 0 0-.465 1.387l1.767 1.81-.419 2.566a.821.821 0 0 0 1.21.852l2.143-1.184 2.143 1.185a.822.822 0 0 0 1.21-.852l-.419-2.566 1.767-1.81a.824.824 0 0 0 .19-.838ZM37.98 35.43a.823.823 0 0 0-.223.706l.212 1.305-1.059-.586a.821.821 0 0 0-.794 0l-1.06.586.212-1.305a.822.822 0 0 0-.222-.706l-.939-.962 1.26-.192a.822.822 0 0 0 .62-.464l.526-1.12.526 1.122a.822.822 0 0 0 .62.464l1.26.192-.939.96Zm19.958-1.795a.823.823 0 0 0 .191.836l1.767 1.81-.419 2.565a.822.822 0 0 0 1.21.852l2.143-1.182 2.143 1.185a.822.822 0 0 0 1.21-.852l-.418-2.566 1.766-1.81a.823.823 0 0 0-.465-1.387l-2.407-.367-1.084-2.312a.822.822 0 0 0-1.489 0l-1.085 2.31-2.407.368a.824.824 0 0 0-.656.55Zm3.746.64a.822.822 0 0 0 .62-.463l.526-1.12.527 1.122a.822.822 0 0 0 .62.463l1.259.193-.939.961a.823.823 0 0 0-.222.707l.212 1.304-1.06-.585a.824.824 0 0 0-.794 0l-1.06.585.213-1.304a.823.823 0 0 0-.223-.707l-.938-.961 1.259-.194Zm-6.297-4.945a.822.822 0 0 0-.658-.551l-2.976-.455-1.336-2.852a.822.822 0 0 0-1.489 0l-1.339 2.852-2.975.459a.824.824 0 0 0-.465 1.387l2.178 2.231-.515 3.162a.822.822 0 0 0 1.208.852l2.652-1.47 2.653 1.466a.823.823 0 0 0 1.209-.852l-.516-3.158 2.178-2.23a.823.823 0 0 0 .19-.84Zm-3.836 2.216a.823.823 0 0 0-.223.707l.31 1.898-1.569-.866a.824.824 0 0 0-.794 0l-1.568.867.31-1.9a.823.823 0 0 0-.223-.706l-1.35-1.383 1.83-.28a.823.823 0 0 0 .62-.463l.778-1.663.781 1.663a.822.822 0 0 0 .62.464l1.827.278-1.35 1.384Z"/>
  <path fill="#101828" d="M29.112 74.345h21.383a.81.81 0 0 0 .305-.059l.014-.006 7.649-3.058a7.415 7.415 0 0 0 6.036 3.123h6.415a3.362 3.362 0 0 0 3.43-3.115 3.283 3.283 0 0 0-1.362-2.844 2.449 2.449 0 0 1-1.105-1.952v-7.691a7.435 7.435 0 0 0-7.425-7.426h-4.088v-1.645h.822a.823.823 0 0 0 .535-1.446l-11.514-9.87a.822.822 0 0 0-1.07 0l-3.577 3.067v-.797a.822.822 0 0 0-.822-.823h-3.29a.823.823 0 0 0-.822.823v4.934c0 .028.013.051.015.078l-3.017 2.588a.823.823 0 0 0 .534 1.446h.823V62.01a.822.822 0 0 0 .822.822h6.58a.823.823 0 0 0 .822-.822v-4.112h4.934v4.112a.822.822 0 0 0 .823.822h4.112v4.088c.002.63.085 1.26.247 1.869l-6.505-2.602-.015-.007a.794.794 0 0 0-.273-.052c-.012 0-.02-.006-.032-.006H29.112a4.112 4.112 0 0 0 0 8.224ZM42.27 41.448h1.645v1.384l-1.645 1.412v-2.796Zm7.402-1.384 9.293 7.963H40.38l9.293-7.963Zm7.402 21.122h-3.29v-4.112a.823.823 0 0 0-.822-.822h-6.58a.822.822 0 0 0-.822.822v4.112h-4.934V49.673h18.093v1.644h-.683a3.363 3.363 0 0 0-3.425 3.115 3.283 3.283 0 0 0 1.363 2.844 2.449 2.449 0 0 1 1.1 1.952v1.958Zm-.138-5.243a1.645 1.645 0 0 1-.685-1.425 1.743 1.743 0 0 1 1.785-1.556h6.415a5.786 5.786 0 0 1 5.781 5.781v7.691a4.067 4.067 0 0 0 1.783 3.286c.457.327.715.864.685 1.425a1.744 1.744 0 0 1-1.785 1.555H64.5a5.786 5.786 0 0 1-5.781-5.78v-7.692a4.067 4.067 0 0 0-1.783-3.285Zm-5.62 12.215 5.189 2.075-5.188 2.075v-4.15Zm-18.092-.392h16.448v1.644H33.224v-1.644Zm0 3.29h16.448V72.7H33.224v-1.645Zm-4.112-3.29h2.467V72.7h-2.467a2.468 2.468 0 0 1 0-4.934Z"/>
</svg>
