<svg xmlns="http://www.w3.org/2000/svg" width="100" height="100" fill="none" viewBox="0 0 100 100">
  <circle cx="50" cy="50" r="50" fill="#fff"/>
  <path fill="#101828" d="M67.137 62.195c2.549-3.537 3.901-7.75 3.901-12.173.052-5.67-2.08-10.976-6.034-14.93-4.006-4.058-9.26-6.243-14.93-6.243-11.549 0-21.017 9.468-21.017 21.017s9.416 21.017 21.017 21.017c2.029 0 3.953-.26 5.774-.833l.104-.052-.416-2.08-.156.051c-1.769.52-3.59.833-5.41.833-10.404 0-18.884-8.48-18.884-18.884s8.48-18.884 18.884-18.884 18.884 8.48 18.884 18.884c0 4.006-1.249 7.855-3.642 11.185v.104l1.82 1.04.105-.052Z"/>
  <path fill="#101828" d="M67.865 32.387C63.131 27.601 56.785 25 50.074 25c-2.34 0-4.578.312-6.71.936l-.105.052.364 1.925.157-.052c2.08-.572 4.213-.884 6.294-.884 12.746 0 23.15 10.352 23.15 23.15 0 12.797-10.404 23.097-23.15 23.097-12.745-.052-23.097-10.457-23.097-23.202a22.84 22.84 0 0 1 4.266-13.37l.104-.104-1.717-.988-.052.104C26.561 39.878 25 44.872 25 50.074c0 13.786 11.237 25.022 25.022 25.022 13.838 0 25.127-11.236 25.127-25.022 0-6.659-2.55-12.953-7.283-17.687Z"/>
  <path fill="#101828" d="M46.016 42.74h-.78a6.283 6.283 0 0 0-6.295 6.294c0 3.434 3.07 5.723 3.173 5.827.157.104.26.26.26.364v4.162c0 1.196.937 2.133 2.134 2.236.26.26.52.417.832.52h.52c.26-.103.52-.26.677-.415 1.196 0 2.133-1.04 2.133-2.237v-4.162c0-.104.156-.26.364-.364.156-.104 3.174-2.393 3.174-5.827.154-3.59-2.759-6.398-6.192-6.398Zm-2.81 10.56s-2.392-1.873-2.392-4.37 1.977-4.422 4.422-4.422h.78c2.497 0 4.422 1.977 4.422 4.422 0 2.393-2.133 4.11-2.393 4.266-.156.104-1.093.78-1.093 1.769v1.352h-2.757v-1.3c.052-.989-.988-1.717-.988-1.717Zm3.85 4.994v1.093c0 .156-.155.364-.364.364h-2.029c-.156 0-.364-.156-.364-.364v-1.093h2.758Z"/>
  <path fill="#101828" d="m45.6 50.543 1.093.572c.104 0 .156.104.26.104.104 0 .26 0 .312-.104a.64.64 0 0 0 .26-.52l-.26-1.249.936-.832c.156-.156.156-.312.156-.573-.104-.156-.26-.312-.416-.312l-1.249-.155-.572-1.093c-.104-.156-.26-.26-.52-.26s-.416.104-.52.26l-.572 1.093-1.25.156c-.155 0-.415.156-.415.312-.105.156 0 .416.156.572l.936.832-.26 1.25c0 .155.104.415.26.52.156.104.416.156.572.104l1.093-.677Zm12.017-9.156H54.86c-.364 0-.728.364-.728.728l-.104 2.809c0 .208.051.416.207.572a.668.668 0 0 0 .52.208c.209 0 .365-.104.573-.208a.668.668 0 0 0 .208-.52l.052-1.145.312.313c1.665 1.664 1.665 4.265 0 5.93l-1.508 1.561c-2.029 2.029-2.237 5.41-.364 7.647-.52.936-.313 2.133.416 2.861.936.937 2.497.937 3.485 0 .989-.936.936-2.496 0-3.485-.728-.728-1.873-.936-2.809-.468-1.3-1.665-1.144-4.058.312-5.514l1.457-1.457c2.237-2.237 2.185-5.826 0-8.011L56.68 43h.936c.208 0 .364-.104.52-.208a.667.667 0 0 0 .208-.52c0-.208-.104-.364-.207-.52-.157-.261-.365-.365-.52-.365h-.001Zm-.676 19.664a.973.973 0 0 1-1.353 0 .973.973 0 0 1 0-1.353.973.973 0 0 1 1.353 0c.416.416.364.989 0 1.353Z"/>
  <path fill="#101828" d="M62.09 53.248a.668.668 0 0 0-.207-.52.794.794 0 0 0-.52-.209.668.668 0 0 0-.52.209l-.885.884-.884-.885a.794.794 0 0 0-.52-.207.668.668 0 0 0-.521.207.794.794 0 0 0-.208.52c0 .209.052.365.26.521l.884.833-.884.832c-.104.104-.208.312-.26.52 0 .208.052.365.208.52a.795.795 0 0 0 .52.209.668.668 0 0 0 .52-.208l.989-.885.884.885a.795.795 0 0 0 .52.208.669.669 0 0 0 .521-.208c.26-.312.26-.78 0-1.04l-.884-.833.884-.832c.052-.157.104-.261.104-.521ZM48.305 40.919c0 .208.052.364.208.52a.794.794 0 0 0 .52.208.668.668 0 0 0 .52-.208l.99-.884.884.884a.794.794 0 0 0 .52.208.668.668 0 0 0 .52-.208.794.794 0 0 0 .208-.52.576.576 0 0 0-.26-.52l-.884-.833.884-.833a.695.695 0 0 0 0-1.04.795.795 0 0 0-.52-.208.668.668 0 0 0-.52.208l-.937.937-.884-.885a.794.794 0 0 0-.52-.208.669.669 0 0 0-.52.208.795.795 0 0 0-.209.52c0 .209.052.365.26.521l.885.832-.885.78a.634.634 0 0 0-.26.52Z"/>
</svg>
