<svg xmlns="http://www.w3.org/2000/svg" width="100" height="100" fill="none" viewBox="0 0 100 100">
  <circle cx="50" cy="50" r="50" fill="#fff"/>
  <path fill="#101828" d="M41.8 61.837a1.04 1.04 0 0 1-.63-.212c-3.65-2.77-5.743-6.995-5.743-11.594 0-8.052 6.55-14.602 14.602-14.602s14.602 6.55 14.602 14.602c0 4.599-2.093 8.825-5.742 11.595a1.042 1.042 0 0 1-1.66-1c.067-.412.101-.818.101-1.208 0-4.026-3.275-7.3-7.3-7.3-4.026 0-7.301 3.274-7.301 7.3 0 .389.034.796.101 1.21a1.043 1.043 0 0 1-1.03 1.21v-.001Zm8.23-24.323c-6.902 0-12.517 5.615-12.517 12.516 0 3.143 1.14 6.082 3.187 8.346.519-4.688 4.505-8.346 9.33-8.346 4.823 0 8.809 3.658 9.328 8.346 2.047-2.264 3.187-5.203 3.187-8.346 0-6.901-5.615-12.516-12.516-12.516Z"/>
  <path fill="#101828" d="M50.03 64.632a14.444 14.444 0 0 1-8.865-3.01 1.046 1.046 0 0 1-.395-.661 9.75 9.75 0 0 1-.127-1.544c0-5.175 4.21-9.386 9.386-9.386 5.176 0 9.387 4.21 9.387 9.386 0 .502-.043 1.023-.129 1.545a1.042 1.042 0 0 1-.394.66 14.442 14.442 0 0 1-8.864 3.01Zm-7.256-4.415a12.36 12.36 0 0 0 7.256 2.329c2.627 0 5.127-.803 7.255-2.329.03-.272.046-.54.046-.8 0-4.026-3.275-7.3-7.3-7.3-4.026 0-7.302 3.274-7.302 7.3 0 .26.015.528.045.8Zm15.484.577h.01-.01Z"/>
  <path fill="#101828" d="M50.032 52.117a5.221 5.221 0 0 1-5.215-5.215 5.221 5.221 0 0 1 5.215-5.215 5.221 5.221 0 0 1 5.215 5.215 5.221 5.221 0 0 1-5.215 5.215Zm0-8.343a3.132 3.132 0 0 0-3.129 3.129 3.132 3.132 0 0 0 3.13 3.129 3.132 3.132 0 0 0 3.128-3.13 3.132 3.132 0 0 0-3.129-3.129ZM30.215 35.43A5.221 5.221 0 0 1 25 30.215 5.221 5.221 0 0 1 30.215 25a5.221 5.221 0 0 1 5.215 5.215 5.221 5.221 0 0 1-5.215 5.215Zm0-8.343a3.132 3.132 0 0 0-3.129 3.128 3.132 3.132 0 0 0 3.13 3.13 3.133 3.133 0 0 0 3.129-3.13 3.133 3.133 0 0 0-3.13-3.128ZM69.85 35.43a5.221 5.221 0 0 1-5.216-5.215A5.221 5.221 0 0 1 69.85 25a5.221 5.221 0 0 1 5.215 5.215 5.222 5.222 0 0 1-5.215 5.215Zm0-8.343a3.133 3.133 0 0 0-3.13 3.129 3.133 3.133 0 0 0 3.13 3.129 3.133 3.133 0 0 0 3.129-3.13 3.133 3.133 0 0 0-3.13-3.128ZM30.215 75.064A5.221 5.221 0 0 1 25 69.848a5.221 5.221 0 0 1 5.215-5.215 5.221 5.221 0 0 1 5.215 5.215 5.221 5.221 0 0 1-5.215 5.216Zm0-8.344a3.133 3.133 0 0 0-3.129 3.129 3.133 3.133 0 0 0 3.13 3.129 3.133 3.133 0 0 0 3.128-3.13 3.132 3.132 0 0 0-3.129-3.128Zm39.635 8.344a5.221 5.221 0 0 1-5.216-5.216 5.221 5.221 0 0 1 5.215-5.215 5.221 5.221 0 0 1 5.215 5.215 5.222 5.222 0 0 1-5.215 5.216Zm0-8.344a3.133 3.133 0 0 0-3.13 3.129 3.133 3.133 0 0 0 3.13 3.129 3.133 3.133 0 0 0 3.129-3.13 3.133 3.133 0 0 0-3.13-3.128Z"/>
  <path fill="#101828" d="M59.62 41.488a1.043 1.043 0 0 1-.737-1.78l7.1-7.1a1.042 1.042 0 1 1 1.475 1.474l-7.1 7.1a1.04 1.04 0 0 1-.738.306Zm-19.178-.003a1.04 1.04 0 0 1-.737-.305l-7.098-7.098a1.043 1.043 0 1 1 1.475-1.475l7.098 7.098a1.042 1.042 0 0 1-.738 1.78ZM66.72 67.763c-.276 0-.552-.109-.757-.326l-6.915-7.3a1.043 1.043 0 1 1 1.514-1.435l6.915 7.301a1.043 1.043 0 0 1-.757 1.76Zm-33.376 0a1.042 1.042 0 0 1-.737-1.78l7.098-7.098a1.042 1.042 0 1 1 1.474 1.475l-7.097 7.097a1.04 1.04 0 0 1-.738.306Z"/>
</svg>
