<svg xmlns="http://www.w3.org/2000/svg" width="100" height="100" fill="none" viewBox="0 0 100 100">
  <circle cx="50" cy="50" r="50" fill="#fff"/>
  <path fill="#101828" d="M55.319 48.402c.64-.704.575-1.727-.064-2.366-.704-.64-1.727-.575-2.366.064l-3.9 4.155-1.727-1.854c-.64-.703-1.662-.703-2.365-.063-.704.64-.704 1.662-.064 2.365l2.941 3.197c.32.32.767.512 1.215.512.448 0 .896-.192 1.215-.512l5.114-5.498Z"/>
  <path fill="#101828" d="M79.935 48.018a1.698 1.698 0 0 0-2.365 0l-2.558 2.557V50c0-13.747-11.19-25-25-25-7.929 0-15.473 3.837-20.205 10.294-.575.767-.383 1.79.384 2.366.767.575 1.79.383 2.365-.384 4.093-5.562 10.615-8.887 17.52-8.887 11.957 0 21.612 9.719 21.612 21.61v.512l-2.558-2.557a1.698 1.698 0 0 0-2.365 0c-.64.64-.64 1.727 0 2.366l5.37 5.37c.32.32.768.512 1.216.512.447 0 .83-.192 1.215-.511l5.37-5.371c.703-.64.703-1.663 0-2.302ZM67.53 62.724c-4.027 5.563-10.549 8.887-17.454 8.887-11.957 0-21.612-9.718-21.612-21.61v-.512l2.558 2.557c.32.32.767.511 1.215.511.447 0 .831-.191 1.215-.511.64-.64.64-1.727 0-2.366l-5.5-5.434a1.698 1.698 0 0 0-2.365 0l-5.37 5.37c-.64.64-.64 1.727 0 2.366.64.64 1.726.64 2.365 0l2.558-2.557V50c0 13.747 11.19 25 25 25 7.928 0 15.473-3.836 20.204-10.294.576-.767.384-1.79-.383-2.366-.832-.511-1.855-.384-2.43.384Z"/>
  <path fill="#101828" d="M62.927 50c0-7.097-5.754-12.851-12.851-12.851-7.098 0-12.852 5.754-12.852 12.851 0 7.098 5.754 12.852 12.852 12.852 7.097 0 12.851-5.754 12.851-12.852ZM40.55 50c0-5.243 4.284-9.527 9.527-9.527 5.243 0 9.527 4.284 9.527 9.527 0 5.243-4.284 9.527-9.527 9.527-5.243 0-9.527-4.284-9.527-9.527Z"/>
</svg>
