<svg xmlns="http://www.w3.org/2000/svg" width="46" height="46" fill="none" viewBox="0 0 46 46">
  <circle cx="23" cy="23" r="23" fill="#CEE5D9"/>
  <path fill="#006D77" d="M32 28.333V29a1.969 1.969 0 0 1-.61 1.413c-.39.374-.917.585-1.467.587H16.077a2.124 2.124 0 0 1-1.467-.587A1.969 1.969 0 0 1 14 29v-.667c0-.176.074-.346.203-.47a.708.708 0 0 1 .49-.196h6.23V29h4.154v-1.333h6.23c.184 0 .36.07.49.195s.203.295.203.471Zm-11.077-2h-6.23V17a1.97 1.97 0 0 1 .61-1.412A2.122 2.122 0 0 1 16.769 15h12.462c.55.002 1.077.213 1.467.588.389.374.608.882.61 1.412v9.333h-6.231a1.417 1.417 0 0 0-.978.392 1.31 1.31 0 0 0-.407.942h-1.384a1.313 1.313 0 0 0-.407-.942c-.26-.25-.611-.39-.978-.392Zm-3.461-8c0 .177.073.346.203.471s.305.195.489.196h9.692a.698.698 0 0 0 .6-.333.646.646 0 0 0 0-.667.697.697 0 0 0-.6-.333h-9.692c-.184 0-.36.07-.49.195a.657.657 0 0 0-.203.471Zm.692 3.334h9.692a.697.697 0 0 0 .6-.334.645.645 0 0 0 0-.666.697.697 0 0 0-.6-.334h-9.692a.697.697 0 0 0-.6.334.645.645 0 0 0 0 .666.697.697 0 0 0 .6.334Z"/>
</svg>
