<svg xmlns="http://www.w3.org/2000/svg" width="34" height="34" fill="none" viewBox="0 0 34 34">
  <circle cx="17" cy="17" r="17" fill="#CEE5D9"/>
  <path fill="#098591" d="M21.07 10.784c-.408 0-.791.158-1.08.446a1.527 1.527 0 0 0-.22 1.871l-3.355 3.417a.446.446 0 0 0 .636.625l3.386-3.45a1.519 1.519 0 0 0 1.711-.307 1.528 1.528 0 0 0 0-2.157 1.516 1.516 0 0 0-1.078-.446Zm.573 2.098a.806.806 0 0 1-.573.237.813.813 0 0 1 0-1.623.813.813 0 0 1 .574 1.385Zm2.9-3.352-.01-.173a.357.357 0 0 0-.333-.333l-.173-.012a7.778 7.778 0 0 0-.47-.012c-1.279 0-4.482.226-6.571 2.316-.256.256-.5.522-.729.791a2.2 2.2 0 0 0-.954-.21c-.617 0-1.198.228-1.596.626l-2.175 2.174c-.246.245-.171.542-.131.7.007.03.015.059.02.088a.905.905 0 0 0 .529.665l1.936.849-1.91 1.91a.357.357 0 0 0-.104.236c0 .01-.002.083.013.2-.793.201-1.89.787-2.06 2.04a.357.357 0 0 0 .5.374c.232-.104.576-.193.81-.183-.225.257-.702.602-1.62.562a.356.356 0 0 0-.25.626c.037.03.672.57 1.514.62-.37.426-.888.857-1.422.857a.356.356 0 0 0-.066.707c.027.005.292.052.688.052.63 0 1.594-.12 2.465-.72.84-.579 1.405-1.477 1.689-2.665.098.014.169.017.203.017h.022a.355.355 0 0 0 .237-.105l1.943-1.943.9 2.053a.898.898 0 0 0 .833.546c.242 0 .47-.094.642-.266l2.197-2.197a2.059 2.059 0 0 0 .354-2.434c.268-.228.528-.468.775-.716 2.575-2.574 2.317-6.86 2.305-7.04Zm-3.775 7.407-.029.028c-.886.62-2.98 1.934-4.48 1.699a1.69 1.69 0 0 1-.91-.455 1.676 1.676 0 0 1-.451-.89l-.007-.051c-.278-1.875 1.886-4.651 2.061-4.873.172-.195.351-.387.538-.574 1.902-1.902 4.877-2.108 6.068-2.108.115 0 .21.002.28.005.027.75.028 4.218-2.103 6.348-.306.307-.631.6-.968.871Z"/>
</svg>
