<svg xmlns="http://www.w3.org/2000/svg" width="70" height="70" fill="none" viewBox="0 0 70 70">
  <circle cx="35" cy="35" r="35" fill="#BEE1E6"/>
  <path fill="#006D77" d="M43.828 31.984a10.787 10.787 0 0 0-2.56-2.56.542.542 0 0 0-.547-.049l-1.763.835a9.346 9.346 0 0 0-1.07-.444l-.657-1.978a.542.542 0 0 0-.514-.371h-3.434c-.233 0-.44.15-.514.37l-.664 2.003-1.04.43-1.786-.845a.543.543 0 0 0-.544.048 10.798 10.798 0 0 0-2.561 2.56.543.543 0 0 0-.049.546l.846 1.787-.431 1.038-2.002.665a.542.542 0 0 0-.371.514v3.434c0 .233.15.44.371.514l2.002.664.43 1.04-.845 1.786a.542.542 0 0 0 .048.545 10.795 10.795 0 0 0 2.56 2.56.54.54 0 0 0 .554.044l1.62-.801-.48-.971-1.324.655a9.71 9.71 0 0 1-1.86-1.86l.81-1.712a.543.543 0 0 0 .01-.44l-.617-1.49a.541.541 0 0 0-.33-.306l-1.866-.619v-2.652l1.866-.619a.54.54 0 0 0 .33-.307l.617-1.49a.543.543 0 0 0-.01-.439l-.81-1.711a9.716 9.716 0 0 1 1.864-1.866l1.713.81a.54.54 0 0 0 .439.011l1.49-.617a.544.544 0 0 0 .306-.33l.62-1.866h2.651l.62 1.866a.543.543 0 0 0 .351.346c.483.15.951.345 1.399.58.15.08.33.084.485.01l1.712-.81a9.716 9.716 0 0 1 1.865 1.865l-.81 1.713a.54.54 0 0 0 .01.484c.236.448.43.916.58 1.398a.54.54 0 0 0 .347.353l1.865.619v2.652l-1.865.619a.541.541 0 0 0-.347.353 8.32 8.32 0 0 1-.58 1.398.541.541 0 0 0-.01.485l.81 1.711a9.716 9.716 0 0 1-1.86 1.862l-1.324-.656-.48.97 1.62.802c.177.089.39.072.552-.043a10.8 10.8 0 0 0 2.56-2.56.543.543 0 0 0 .05-.546l-.835-1.763c.17-.348.318-.705.443-1.07l1.978-.657a.542.542 0 0 0 .371-.514v-3.434c0-.233-.15-.44-.37-.514l-1.979-.657a9.327 9.327 0 0 0-.443-1.07l.834-1.763a.542.542 0 0 0-.047-.545Z"/>
  <path fill="#006D77" d="M32.292 49.083v1.625a.541.541 0 0 0 .541.542h4.334a.542.542 0 0 0 .541-.542v-1.625a.542.542 0 0 0 .542-.541v-.81a9.5 9.5 0 0 1 1.982-5.63A6.435 6.435 0 0 0 41.5 38.25a6.5 6.5 0 1 0-11.613 4.01 9.257 9.257 0 0 1 1.863 5.725v.557a.542.542 0 0 0 .542.541Zm4.333 1.084h-3.25v-1.084h3.25v1.084Zm-5.886-8.577a5.392 5.392 0 0 1-1.088-4.205 5.455 5.455 0 0 1 4.723-4.517 5.415 5.415 0 0 1 4.987 8.59 10.571 10.571 0 0 0-2.194 6.274V48h-1.625v-4.388a2.709 2.709 0 1 0-1.084 0V48h-1.625v-.014a10.348 10.348 0 0 0-2.094-6.396Zm4.261.994a1.625 1.625 0 1 1 0-3.251 1.625 1.625 0 0 1 0 3.25Zm-4.333-22.181v2.652a1.654 1.654 0 0 0 1.653 1.653h1.307l.922 1.384a.542.542 0 0 0 .902 0l.922-1.384h1.307a1.654 1.654 0 0 0 1.653-1.653v-2.652a1.654 1.654 0 0 0-1.653-1.653h-5.36a1.654 1.654 0 0 0-1.653 1.653Zm1.083 0a.57.57 0 0 1 .57-.57h5.36a.57.57 0 0 1 .57.57v2.652a.57.57 0 0 1-.57.57h-1.597a.54.54 0 0 0-.45.241l-.633.95-.633-.95a.542.542 0 0 0-.45-.241H32.32a.57.57 0 0 1-.57-.57v-2.652Zm14.625-1.653a4.874 4.874 0 1 0 0 9.749 4.874 4.874 0 0 0 0-9.749Zm0 8.667a3.79 3.79 0 1 1 0-7.581 3.79 3.79 0 0 1 0 7.58ZM23.625 28.5a4.874 4.874 0 1 0 0-9.749 4.874 4.874 0 0 0 0 9.749Zm0-8.667a3.79 3.79 0 1 1 0 7.581 3.79 3.79 0 0 1 0-7.58Z"/>
  <path fill="#006D77" d="M46.375 23.083a.542.542 0 0 1 0-1.083h1.083v-1.083h-1.083a1.625 1.625 0 0 0 0 3.25.542.542 0 0 1 0 1.083h-1.083v1.083h1.083a1.625 1.625 0 0 0 0-3.25Zm-13.542-2.166H35V22h-2.167v-1.083Zm3.25 0h1.084V22h-1.084v-1.083Zm-14.625 2.708h1.084v1.625h-1.084v-1.625Zm1.625-1.083h1.084v2.708h-1.084v-2.708Zm1.625-1.084h1.084v3.792h-1.084v-3.792Zm24.375 7.584h1.084v1.083h-1.084v-1.083Zm0 2.166h1.084v1.084h-1.084v-1.084Zm0 2.167h1.084v1.083h-1.084v-1.083Zm0 2.167h1.084v1.083h-1.084v-1.083Zm0 2.166h1.084v1.084h-1.084v-1.084Zm-2.166 0H48v1.084h-1.083v-1.084Zm-27.084-8.666h1.084v1.083h-1.084v-1.083Zm0 2.166h1.084v1.084h-1.084v-1.084Zm0 2.167h1.084v1.083h-1.084v-1.083Zm0 2.167h1.084v1.083h-1.084v-1.083Zm0 2.166h1.084v1.084h-1.084v-1.084Zm2.167 0h1.083v1.084H22v-1.084Zm12.458 2.709h1.084V41.5h-1.084v-1.083Z"/>
</svg>
