<svg xmlns="http://www.w3.org/2000/svg" width="46" height="46" fill="none" viewBox="0 0 46 46">
  <circle cx="23" cy="23" r="23" fill="#CEE5D9"/>
  <path fill="#006D77" d="m32.283 20.895.514-.83.83.513-.514.83-.83-.513Zm-3.225 2.687.515-.83.83.514-.514.83-.83-.514Zm1.828-.43.514-.83.83.514-.513.83-.831-.514Zm-.43-1.827.514-.831.83.514-.514.83-.83-.513Zm-.699 1.128.514-.83.83.514-.513.83-.831-.514Zm1.827-.43.515-.83.83.514-.514.83-.83-.514Zm-3.318-2.205c.01.055.018.111.025.167l.738.457.514-.83-.83-.515-.447.721Zm-.101-.502.25-.403-.445-.275c.076.221.14.447.195.678Zm2.989.88.514-.83.83.513-.513.831-.83-.514Zm-1.827.431.514-.831.83.514-.514.83-.83-.513Zm.699-1.129.514-.83.83.513-.514.831-.83-.514Zm-.878-2.104.15.092.126-.205a4.432 4.432 0 0 0-.276.113Zm1.039 6.886.514-.83.831.514-.514.83-.83-.513Zm-1.611-.584-.588-.365a7.257 7.257 0 0 1-.696 1.501 3.3 3.3 0 0 0 .391.307l.893-1.443Zm-.598-3.401a6.956 6.956 0 0 0-.814-2.63l-.523 1.695 1.337.935Zm.919-1.495.514-.831.83.514-.513.83-.831-.514Zm2.336 6.54-.101-.063-.088.14a4.44 4.44 0 0 0 .19-.077Zm-3.139-2.354.667.413.514-.832-.83-.514-.213.343a7.445 7.445 0 0 1-.138.59Zm.534-1.231.514-.83.831.514-.514.83-.83-.514Zm-.265-.749c0 .126-.003.25-.009.375l-.004.055c-.002.04-.006.078-.009.117l.504-.813-.507-.313c.015.191.025.384.025.58Zm-9.607-.636.805 2.738h2.89l.806-2.738-2.25-1.768-2.251 1.768Zm9.221 1.35c.01-.1.017-.202.023-.304l.004-.053c.006-.118.01-.237.01-.357 0-.088-.004-.176-.008-.264l-1.6-1.12-2.806.825-.823 2.803 1.47 1.96h2.36a6.968 6.968 0 0 0 1.37-3.49Zm.129 5.057.06-.034a3.855 3.855 0 0 1-1.598-.923 8.818 8.818 0 0 1-.251.275.168.168 0 0 1 .008.059 16.437 16.437 0 0 1-.173 1.8c.63-.428 1.281-.821 1.954-1.177Zm-5.374-12.561a7.01 7.01 0 0 0-3.45 0l1.725 1.15 1.725-1.15Zm-3.495 9.033-.824-2.803-2.805-.823-1.601 1.12a6.968 6.968 0 0 0 1.399 4.467h2.36l1.471-1.961Zm-4.387-5.585a6.96 6.96 0 0 0-.814 2.63l1.336-.934-.522-1.696Zm.839 7.896a7.04 7.04 0 0 0 2.573 1.892l-.54-1.891h-2.033Zm5.493-7.266 2.314 1.819 2.801-.823.625-2.032a7.036 7.036 0 0 0-3.75-2.914l-1.99 1.326v2.624Zm6.739-.099.678.42.514-.832-.33-.204a5 5 0 0 0-.862.616Zm-9.404 1.918 2.314-1.819V15.67l-1.99-1.326a7.036 7.036 0 0 0-3.75 2.914l.626 2.03 2.8.825Z"/>
  <path fill="#006D77" d="m33.081 16.771-.032-.014a.225.225 0 0 1-.018-.01c-1.639-.986-3.848-.655-5.527.814.065.122.127.246.184.372 1.527-1.351 3.533-1.652 5.06-.734 1.972 1.22 2.42 4.077 1.002 6.37-.976 1.576-2.609 2.48-4.178 2.48a3.767 3.767 0 0 1-1.946-.526l-.02-.012-.026-.015a3.608 3.608 0 0 1-.48-.366 7.34 7.34 0 0 1-.309.42c.517.5 1.172.833 1.88.957a.175.175 0 0 1 .053.325l-.448.25c-.939.524-2.106 1.176-2.334 1.537l-.003.004a.176.176 0 0 1-.298-.186l.003-.004c.185-.3.268-1.303.311-1.984a7.388 7.388 0 0 1-.639.52 5.98 5.98 0 0 1-.735 2.688l.725.449c.995-1.488 2.479-2.137 4.046-2.824 1.568-.688 3.194-1.398 4.397-3.03.015-.02.27-.387.327-.48 1.575-2.54 1.127-5.679-.995-7Zm-10.585 6.688h-2.978l-1.471 1.961.625 2.19a6.972 6.972 0 0 0 2.692.394c.017 0 .035-.003.052-.004a7.4 7.4 0 0 0 .305-.023c.004 0 .007 0 .01-.002a6.882 6.882 0 0 0 1.61-.364l.626-2.19-1.471-1.962Zm2.763 7.052-1.018-.627a.172.172 0 0 1-.056-.06l-.021-.014-2.765 4.466 1.207.747 2.765-4.466-.035-.022a.172.172 0 0 1-.077-.024Z"/>
  <path fill="#006D77" d="M26.324 25.56h-2.033l-.54 1.892a7.038 7.038 0 0 0 2.573-1.891Zm7.884-5.254-.098.159.113.07a4.208 4.208 0 0 0-.015-.23Zm-.257 2.034-.723-.449-.514.83.827.513a5.28 5.28 0 0 0 .41-.895Zm-.595 1.192-.828-.512-.514.83.721.447c.23-.235.439-.491.62-.765Zm-2.823 2.048.3-.487-.83-.515-.688 1.112c.41.027.82-.01 1.218-.11Zm-.602-8.453-.336.543.83.514.711-1.148a3.788 3.788 0 0 0-1.205.091Zm2.541 7.419-.642-.397-.514.83.288.179c.31-.172.602-.377.868-.612Zm1.75-3.599-.296-.184-.514.83.644.4c.094-.342.15-.693.166-1.047Zm-1.474-3.327-.895 1.448.83.514.781-1.262a3.316 3.316 0 0 0-.716-.7Zm-3.043 6.775-.83-.515-.892 1.44c.299.155.619.263.95.322l.772-1.247Zm1.019-6.025.83.513.896-1.447a3.323 3.323 0 0 0-.937-.343l-.79 1.276Zm2.257 1.396.83.514.313-.505a3.841 3.841 0 0 0-.445-1.136l-.698 1.127Z"/>
</svg>
