<svg xmlns="http://www.w3.org/2000/svg" width="74" height="14" fill="none" viewBox="0 0 74 14">
  <path fill="#FFD166" d="M7 0 4.78 4.375 0 5.169l3.408 3.498-.734 4.866L7 11.32l4.326 2.213-.734-4.866L14 5.17l-4.78-.794L7 0Zm15 0-2.22 4.375-4.78.794 3.408 3.498-.734 4.866L22 11.32l4.326 2.213-.734-4.866L29 5.17l-4.78-.794L22 0Zm15 0-2.22 4.375-4.78.794 3.408 3.498-.734 4.866L37 11.32l4.326 2.213-.734-4.866L44 5.17l-4.78-.794L37 0Zm15 0-2.22 4.375-4.78.794 3.408 3.498-.734 4.866L52 11.32l4.326 2.213-.734-4.866L59 5.17l-4.78-.794L52 0Z"/>
  <path fill="#DFDEDC" d="m67 0-2.22 4.375-4.78.794 3.408 3.498-.734 4.866L67 11.32l4.326 2.213-.734-4.866L74 5.17l-4.78-.794L67 0Z"/>
</svg>
