<svg xmlns="http://www.w3.org/2000/svg" width="250" height="207" fill="none" viewBox="0 0 250 207">
  <g filter="url(#a)">
    <rect width="206" height="163" x="22" y="22" fill="#fff" rx="8"/>
  </g>
  <rect width="105" height="18" x="37" y="36" fill="#BEE1E6" rx="9"/>
  <path fill="#006D77" d="M59.682 41.08V49h-.912v-4.98l.108-2.088h-.011L56.263 49h-.816l-2.605-7.068h-.011l.107 2.088V49h-.912v-7.92h1.476l1.74 4.812.6 1.98h.025l.611-1.968 1.728-4.824h1.476Zm5.84 4.044c0-.448-.12-.792-.36-1.032-.24-.248-.58-.372-1.02-.372-.416 0-.768.092-1.056.276-.288.176-.5.464-.636.864l-.78-.48c.16-.448.456-.808.888-1.08.432-.28.968-.42 1.608-.42.432 0 .824.076 1.176.228.352.144.628.368.828.672.208.296.312.68.312 1.152v2.904c0 .288.152.432.456.432.152 0 .3-.02.444-.06l-.048.756c-.16.08-.368.12-.624.12-.232 0-.44-.044-.624-.132a.985.985 0 0 1-.432-.396 1.373 1.373 0 0 1-.156-.684v-.12l.24.036c-.096.312-.26.568-.492.768a2.406 2.406 0 0 1-.78.432 2.905 2.905 0 0 1-.852.132c-.352 0-.68-.06-.984-.18-.304-.12-.548-.3-.732-.54-.176-.248-.264-.552-.264-.912 0-.448.148-.816.444-1.104.304-.296.724-.496 1.26-.6l2.376-.468v.792l-1.932.396c-.392.08-.684.192-.876.336a.708.708 0 0 0-.288.6c0 .248.096.452.288.612.2.152.48.228.84.228.232 0 .452-.028.66-.084.216-.064.408-.156.576-.276.168-.128.3-.284.396-.468.096-.192.144-.416.144-.672v-1.656ZM68.815 49v-6h.78l.132.984a1.77 1.77 0 0 1 .732-.828c.328-.184.724-.276 1.188-.276.104 0 .216.008.336.024a.91.91 0 0 1 .324.096l-.168.876a1.516 1.516 0 0 0-.288-.072 3.115 3.115 0 0 0-.444-.024c-.248 0-.5.072-.756.216a1.719 1.719 0 0 0-.624.66c-.168.288-.252.656-.252 1.104V49h-.96Zm10.167-6-2.592 2.592-.228.228-1.968 1.968v-1.2L77.77 43h1.212Zm-4.308-2.76V49h-.96v-8.76h.96Zm1.8 4.86 2.652 3.9h-1.164l-2.292-3.36.804-.54Zm6.345 4.02a3.093 3.093 0 0 1-1.524-.372 2.605 2.605 0 0 1-1.032-1.068c-.248-.472-.372-1.032-.372-1.68 0-.648.124-1.204.372-1.668a2.611 2.611 0 0 1 1.02-1.08 2.911 2.911 0 0 1 1.476-.372c.56 0 1.036.12 1.428.36.4.24.704.568.912.984.208.408.312.868.312 1.38 0 .136-.004.26-.012.372a2.81 2.81 0 0 1-.036.3h-4.848v-.852h4.428l-.492.096c0-.576-.16-1.02-.48-1.332-.312-.312-.724-.468-1.236-.468-.392 0-.732.092-1.02.276-.28.176-.5.436-.66.78-.152.336-.228.744-.228 1.224 0 .472.08.88.24 1.224.16.344.384.608.672.792.296.176.648.264 1.056.264.44 0 .796-.084 1.068-.252a1.9 1.9 0 0 0 .672-.684l.756.444a2.505 2.505 0 0 1-.588.708c-.232.2-.508.356-.828.468a3.33 3.33 0 0 1-1.056.156Zm5.658-7.824v6.048c0 .296.084.516.252.66.168.144.384.216.648.216.232 0 .432-.04.6-.12.168-.08.32-.188.456-.324l.336.804c-.184.168-.404.3-.66.396a2.385 2.385 0 0 1-.864.144c-.304 0-.588-.052-.852-.156a1.438 1.438 0 0 1-.636-.516c-.152-.24-.232-.552-.24-.936V41.56l.96-.264ZM90.661 43v.828h-4.344V43h4.344Zm8.242-2.04c.695 0 1.296.144 1.8.432.504.28.924.696 1.26 1.248l-.804.624c-.296-.512-.632-.872-1.008-1.08-.368-.216-.816-.324-1.344-.324-.425 0-.776.06-1.056.18-.273.12-.473.28-.6.48a1.162 1.162 0 0 0-.192.66c0 .28.087.528.263.744.177.208.529.372 1.056.492l1.716.384c.761.168 1.289.424 1.585.768.304.336.456.756.456 1.26 0 .448-.128.848-.384 1.2-.248.344-.6.612-1.056.804-.456.192-.992.288-1.608.288-.576 0-1.084-.076-1.524-.228a3.697 3.697 0 0 1-1.116-.636 3.653 3.653 0 0 1-.768-.888l.84-.684c.151.304.347.572.588.804.24.232.527.412.864.54.344.128.736.192 1.175.192.408 0 .76-.048 1.057-.144.304-.104.536-.252.696-.444.16-.2.24-.44.24-.72 0-.256-.084-.484-.252-.684-.168-.208-.484-.364-.949-.468l-1.86-.42c-.487-.112-.883-.264-1.188-.456a1.901 1.901 0 0 1-.648-.696 2.032 2.032 0 0 1-.191-.876c0-.424.116-.812.348-1.164.24-.36.58-.648 1.02-.864.447-.216.975-.324 1.584-.324Zm6.379.336v6.048c0 .296.084.516.252.66.168.144.384.216.648.216.232 0 .432-.04.6-.12.168-.08.32-.188.456-.324l.336.804c-.184.168-.404.3-.66.396a2.385 2.385 0 0 1-.864.144c-.304 0-.588-.052-.852-.156a1.438 1.438 0 0 1-.636-.516c-.152-.24-.232-.552-.24-.936V41.56l.96-.264ZM107.466 43v.828h-4.344V43h4.344Zm4.931 2.124c0-.448-.12-.792-.36-1.032-.24-.248-.58-.372-1.02-.372-.416 0-.768.092-1.056.276-.288.176-.5.464-.636.864l-.78-.48c.16-.448.456-.808.888-1.08.432-.28.968-.42 1.608-.42.432 0 .824.076 1.176.228.352.144.628.368.828.672.208.296.312.68.312 1.152v2.904c0 .288.152.432.456.432.152 0 .3-.02.444-.06l-.048.756c-.16.08-.368.12-.624.12-.232 0-.44-.044-.624-.132a.985.985 0 0 1-.432-.396 1.373 1.373 0 0 1-.156-.684v-.12l.24.036c-.096.312-.26.568-.492.768a2.406 2.406 0 0 1-.78.432 2.905 2.905 0 0 1-.852.132c-.352 0-.68-.06-.984-.18-.304-.12-.548-.3-.732-.54-.176-.248-.264-.552-.264-.912 0-.448.148-.816.444-1.104.304-.296.724-.496 1.26-.6l2.376-.468v.792l-1.932.396c-.392.08-.684.192-.876.336a.708.708 0 0 0-.288.6c0 .248.096.452.288.612.2.152.48.228.84.228.232 0 .452-.028.66-.084.216-.064.408-.156.576-.276.168-.128.3-.284.396-.468.096-.192.144-.416.144-.672v-1.656Zm4.475-3.828v6.048c0 .296.084.516.252.66.168.144.384.216.648.216.232 0 .432-.04.6-.12.168-.08.32-.188.456-.324l.336.804c-.184.168-.404.3-.66.396a2.385 2.385 0 0 1-.864.144c-.304 0-.588-.052-.852-.156a1.438 1.438 0 0 1-.636-.516c-.152-.24-.232-.552-.24-.936V41.56l.96-.264ZM119.056 43v.828h-4.344V43h4.344Zm1.907-1.152a.74.74 0 0 1-.528-.192.74.74 0 0 1-.192-.528c0-.216.064-.388.192-.516a.714.714 0 0 1 .528-.204c.216 0 .388.068.516.204.136.128.204.3.204.516a.714.714 0 0 1-.204.528c-.128.128-.3.192-.516.192Zm.48 1.152v6h-.96v-6h.96Zm4.712-.12c.416 0 .78.064 1.092.192.32.128.596.312.828.552.232.24.42.524.564.852l-.912.432c-.128-.384-.324-.676-.588-.876-.256-.208-.592-.312-1.008-.312-.4 0-.744.092-1.032.276a1.677 1.677 0 0 0-.66.78c-.152.336-.228.744-.228 1.224 0 .472.076.88.228 1.224.152.344.372.608.66.792.288.176.632.264 1.032.264.312 0 .58-.048.804-.144.232-.096.42-.236.564-.42.152-.184.256-.408.312-.672l.888.312a2.87 2.87 0 0 1-.564.948 2.349 2.349 0 0 1-.852.612 2.925 2.925 0 0 1-1.128.204c-.56 0-1.06-.124-1.5-.372a2.605 2.605 0 0 1-1.032-1.068c-.248-.472-.372-1.032-.372-1.68 0-.648.124-1.204.372-1.668a2.588 2.588 0 0 1 1.032-1.08c.44-.248.94-.372 1.5-.372Z"/>
  <circle cx="45.5" cy="45.5" r="2.5" fill="#006D77"/>
  <path stroke="#101828" stroke-linecap="round" stroke-width="2" d="M37 128.702c11.625 1.479 15-2.671 16.364-10.016 8.181-14.022 30-15.357 38.182-8.68 13.636 17.361 19.772 20.699 28.636 2.003 13.725-18.981 17.717-19.395 24.545-10.016 9.359 6.138 11.518 8.278 12.955 16.026 2.045 4.006 6.627 2.689 8.182-3.339C182 90 190 88 205 101.993"/>
  <circle cx="154.5" cy="109.5" r="3.85" fill="#fff" stroke="#006D77" stroke-width="1.3"/>
  <rect width="26" height="13" x="165" y="156" fill="#AFEAE4" rx="6.5"/>
  <path fill="#6D7589" d="M42.09 159.4v4.34c0 .74-.2 1.32-.6 1.74-.394.413-.94.62-1.64.62-.494 0-.9-.093-1.22-.28a1.497 1.497 0 0 1-.67-.79c-.12-.347-.137-.75-.05-1.21l.74-.15c-.074.567-.024.99.15 1.27.18.273.52.41 1.02.41.566 0 .953-.153 1.16-.46.206-.313.31-.763.31-1.35v-4.14h.8Zm4.788 3.37c0-.373-.1-.66-.3-.86-.2-.207-.484-.31-.85-.31-.347 0-.64.077-.88.23-.24.147-.417.387-.53.72l-.65-.4a1.74 1.74 0 0 1 .74-.9c.36-.233.806-.35 1.34-.35.36 0 .686.063.98.19.293.12.523.307.69.56.173.247.26.567.26.96v2.42c0 .24.126.36.38.36.126 0 .25-.017.37-.05l-.04.63a1.16 1.16 0 0 1-.52.1c-.194 0-.367-.037-.52-.11a.817.817 0 0 1-.36-.33 1.143 1.143 0 0 1-.13-.57v-.1l.2.03c-.08.26-.217.473-.41.64-.194.16-.41.28-.65.36-.24.073-.477.11-.71.11a2.21 2.21 0 0 1-.82-.15 1.39 1.39 0 0 1-.61-.45 1.28 1.28 0 0 1-.22-.76c0-.373.123-.68.37-.92.253-.247.603-.413 1.05-.5l1.98-.39v.66l-1.61.33c-.327.067-.57.16-.73.28a.59.59 0 0 0-.24.5c0 .207.08.377.24.51.166.127.4.19.7.19.193 0 .376-.023.55-.07.18-.053.34-.13.48-.23.14-.107.25-.237.33-.39.08-.16.12-.347.12-.56v-1.38Zm2.844 3.23v-5h.7l.07 1.12-.13-.11a1.663 1.663 0 0 1 1.05-1c.24-.073.486-.11.74-.11.36 0 .687.07.98.21.293.133.526.34.7.62.18.28.27.637.27 1.07v3.2h-.8v-2.92c0-.553-.12-.937-.36-1.15a1.22 1.22 0 0 0-.87-.33c-.24 0-.48.057-.72.17-.24.113-.44.297-.6.55-.154.253-.23.593-.23 1.02V166h-.8Zm21.586-5.85h-3.82v2.13h2.98v.75h-2.98V166h-.8v-6.6h4.62v.75Zm2.976 5.95c-.473 0-.896-.103-1.27-.31a2.17 2.17 0 0 1-.86-.89c-.206-.393-.31-.86-.31-1.4 0-.54.104-1.003.31-1.39a2.18 2.18 0 0 1 .85-.9c.36-.207.77-.31 1.23-.31.467 0 .864.1 1.19.3.334.2.587.473.76.82.174.34.26.723.26 1.15 0 .113-.003.217-.01.31a2.359 2.359 0 0 1-.03.25h-4.04v-.71h3.69l-.41.08c0-.48-.133-.85-.4-1.11-.26-.26-.603-.39-1.03-.39-.326 0-.61.077-.85.23a1.478 1.478 0 0 0-.55.65c-.126.28-.19.62-.19 1.02 0 .393.067.733.2 1.02.134.287.32.507.56.66.247.147.54.22.88.22.367 0 .664-.07.89-.21.234-.14.42-.33.56-.57l.63.37c-.126.227-.29.423-.49.59a2.102 2.102 0 0 1-.69.39c-.26.087-.553.13-.88.13Zm6.232 0c-.28 0-.54-.05-.78-.15a1.824 1.824 0 0 1-1.01-1.03l.11-.14-.07 1.22h-.7v-7.3h.8v3.43l-.1-.15c.133-.313.357-.57.67-.77.32-.207.683-.31 1.09-.31a2.182 2.182 0 0 1 1.97 1.2c.207.387.31.853.31 1.4 0 .54-.107 1.007-.32 1.4a2.182 2.182 0 0 1-1.97 1.2Zm-.08-.7c.493 0 .877-.173 1.15-.52.28-.347.42-.807.42-1.38 0-.573-.137-1.033-.41-1.38-.273-.347-.657-.52-1.15-.52-.313 0-.59.08-.83.24-.233.16-.417.383-.55.67a2.38 2.38 0 0 0-.2 1.01c0 .38.063.713.19 1 .133.28.317.497.55.65.24.153.517.23.83.23Zm17.546-6v6.6h-.76v-4.15l.09-1.74h-.01l-2.17 5.89h-.68l-2.17-5.89h-.01l.09 1.74V166h-.76v-6.6h1.23l1.45 4.01.5 1.65h.02l.51-1.64 1.44-4.02h1.23Zm4.966 3.37c0-.373-.1-.66-.3-.86-.2-.207-.483-.31-.85-.31-.346 0-.64.077-.88.23-.24.147-.416.387-.53.72l-.65-.4c.134-.373.38-.673.74-.9.36-.233.807-.35 1.34-.35.36 0 .687.063.98.19.294.12.524.307.69.56.174.247.26.567.26.96v2.42c0 .24.127.36.38.36.127 0 .25-.017.37-.05l-.04.63c-.133.067-.306.1-.52.1-.193 0-.366-.037-.52-.11a.82.82 0 0 1-.36-.33 1.15 1.15 0 0 1-.13-.57v-.1l.2.03c-.08.26-.216.473-.41.64-.193.16-.41.28-.65.36-.24.073-.476.11-.71.11-.293 0-.566-.05-.82-.15-.253-.1-.456-.25-.61-.45a1.28 1.28 0 0 1-.22-.76c0-.373.124-.68.37-.92.254-.247.604-.413 1.05-.5l1.98-.39v.66l-1.61.33c-.326.067-.57.16-.73.28a.59.59 0 0 0-.24.5c0 .207.08.377.24.51.167.127.4.19.7.19.194 0 .377-.023.55-.07.18-.053.34-.13.48-.23.14-.107.25-.237.33-.39.08-.16.12-.347.12-.56v-1.38Zm2.845 3.23v-5h.65l.11.82a1.47 1.47 0 0 1 .61-.69c.273-.153.603-.23.99-.23.086 0 .18.007.28.02a.76.76 0 0 1 .27.08l-.14.73a1.24 1.24 0 0 0-.24-.06 2.65 2.65 0 0 0-.37-.02c-.207 0-.417.06-.63.18-.207.12-.38.303-.52.55-.14.24-.21.547-.21.92v2.7h-.8Zm15.973 0h-.85l-.7-1.83h-2.99l-.7 1.83h-.84l2.57-6.6h.95l2.56 6.6Zm-4.25-2.58h2.41l-1.21-3.25-1.2 3.25Zm5.542 4.68V161h.7l.07 1.22-.11-.14c.086-.233.216-.437.39-.61.173-.18.383-.32.63-.42.246-.1.513-.15.8-.15.406 0 .78.103 1.12.31.346.207.623.503.83.89.206.387.31.853.31 1.4 0 .54-.107 1.007-.32 1.4a2.184 2.184 0 0 1-1.97 1.2c-.414 0-.777-.1-1.09-.3a1.766 1.766 0 0 1-.66-.78l.1-.15v3.23h-.8Zm2.37-2.7c.493 0 .876-.173 1.15-.52.28-.347.42-.807.42-1.38 0-.573-.137-1.033-.41-1.38-.267-.347-.644-.52-1.13-.52-.32 0-.6.08-.84.24-.24.153-.427.373-.56.66-.134.28-.2.613-.2 1 0 .38.063.713.19 1 .133.287.316.51.55.67.24.153.516.23.83.23Zm3.999.6v-5h.65l.11.82c.14-.307.344-.537.61-.69.274-.153.604-.23.99-.23.087 0 .18.007.28.02.107.013.197.04.27.08l-.14.73a1.204 1.204 0 0 0-.24-.06 2.64 2.64 0 0 0-.37-.02c-.206 0-.416.06-.63.18-.206.12-.38.303-.52.55-.14.24-.21.547-.21.92v2.7h-.8Zm17.494-6.6v6.6h-.76v-4.15l.09-1.74h-.01l-2.17 5.89h-.68l-2.17-5.89h-.01l.09 1.74V166h-.76v-6.6h1.23l1.45 4.01.5 1.65h.02l.51-1.64 1.44-4.02h1.23Zm4.967 3.37c0-.373-.1-.66-.3-.86-.2-.207-.483-.31-.85-.31-.347 0-.64.077-.88.23-.24.147-.417.387-.53.72l-.65-.4c.133-.373.38-.673.74-.9.36-.233.807-.35 1.34-.35.36 0 .687.063.98.19.293.12.523.307.69.56.173.247.26.567.26.96v2.42c0 .24.127.36.38.36.127 0 .25-.017.37-.05l-.04.63a1.16 1.16 0 0 1-.52.1c-.193 0-.367-.037-.52-.11a.82.82 0 0 1-.36-.33 1.139 1.139 0 0 1-.13-.57v-.1l.2.03c-.08.26-.217.473-.41.64-.193.16-.41.28-.65.36-.24.073-.477.11-.71.11-.293 0-.567-.05-.82-.15-.253-.1-.457-.25-.61-.45a1.278 1.278 0 0 1-.22-.76c0-.373.123-.68.37-.92.253-.247.603-.413 1.05-.5l1.98-.39v.66l-1.61.33c-.327.067-.57.16-.73.28a.59.59 0 0 0-.24.5c0 .207.08.377.24.51.167.127.4.19.7.19.193 0 .377-.023.55-.07.18-.053.34-.13.48-.23.14-.107.25-.237.33-.39.08-.16.12-.347.12-.56v-1.38Zm6.661-1.77-2.35 5.84a2.845 2.845 0 0 1-.42.77c-.147.193-.313.33-.5.41-.18.087-.39.13-.63.13-.227 0-.437-.033-.63-.1a1.749 1.749 0 0 1-.5-.25l.22-.7c.133.12.273.207.42.26.153.06.303.09.45.09a.84.84 0 0 0 .49-.16c.153-.107.293-.323.42-.65l.26-.65-.5-1.19-1.59-3.8h.91l1.25 3.26.31.89.36-.99 1.17-3.16h.86Zm43.657-1.6v4.34c0 .74-.2 1.32-.6 1.74-.393.413-.94.62-1.64.62-.493 0-.9-.093-1.22-.28a1.5 1.5 0 0 1-.67-.79c-.12-.347-.137-.75-.05-1.21l.74-.15c-.073.567-.023.99.15 1.27.18.273.52.41 1.02.41.567 0 .953-.153 1.16-.46.207-.313.31-.763.31-1.35v-4.14h.8Zm3.766 6.7c-.32 0-.623-.06-.91-.18-.28-.12-.51-.313-.69-.58-.173-.273-.26-.627-.26-1.06V161h.8v3.07c0 .507.11.857.33 1.05.22.187.53.28.93.28.187 0 .37-.03.55-.09.18-.067.34-.167.48-.3.147-.14.26-.317.34-.53.087-.213.13-.467.13-.76V161h.8v5h-.7l-.05-.76c-.173.3-.41.52-.71.66a2.5 2.5 0 0 1-1.04.2Zm5.222-7.4v6.03c0 .253.047.43.14.53.093.093.243.14.45.14.133 0 .243-.01.33-.03.087-.02.203-.057.35-.11l-.13.7a1.41 1.41 0 0 1-.35.1 1.87 1.87 0 0 1-.39.04c-.407 0-.71-.11-.91-.33-.193-.22-.29-.557-.29-1.01v-6.06h.8Z"/>
  <path fill="#101828" d="M173.686 159.4v4.34c0 .74-.2 1.32-.6 1.74-.393.413-.94.62-1.64.62-.493 0-.9-.093-1.22-.28a1.5 1.5 0 0 1-.67-.79c-.12-.347-.137-.75-.05-1.21l.74-.15c-.073.567-.023.99.15 1.27.18.273.52.41 1.02.41.567 0 .953-.153 1.16-.46.207-.313.31-.763.31-1.35v-4.14h.8Zm3.766 6.7c-.32 0-.623-.06-.91-.18-.28-.12-.51-.313-.69-.58-.173-.273-.26-.627-.26-1.06V161h.8v3.07c0 .507.11.857.33 1.05.22.187.53.28.93.28.187 0 .37-.03.55-.09.18-.067.34-.167.48-.3.147-.14.26-.317.34-.53.087-.213.13-.467.13-.76V161h.8v5h-.7l-.05-.76c-.173.3-.41.52-.71.66a2.5 2.5 0 0 1-1.04.2Zm4.462-.1v-5h.7l.07 1.12-.13-.11a1.667 1.667 0 0 1 1.05-1c.24-.073.487-.11.74-.11.36 0 .687.07.98.21.293.133.527.34.7.62.18.28.27.637.27 1.07v3.2h-.8v-2.92c0-.553-.12-.937-.36-1.15a1.218 1.218 0 0 0-.87-.33c-.24 0-.48.057-.72.17-.24.113-.44.297-.6.55-.153.253-.23.593-.23 1.02V166h-.8ZM44.74 71.9c-.16.48-.4.888-.72 1.224-.32.328-.696.576-1.128.744a3.909 3.909 0 0 1-1.428.252c-.76 0-1.42-.164-1.98-.492a3.29 3.29 0 0 1-1.296-1.404c-.304-.608-.456-1.336-.456-2.184 0-.848.152-1.576.456-2.184a3.29 3.29 0 0 1 1.296-1.404c.56-.328 1.216-.492 1.968-.492.52 0 .988.072 1.404.216.424.144.784.36 1.08.648.296.288.524.648.684 1.08l-1.212.54c-.16-.472-.392-.816-.696-1.032-.304-.224-.7-.336-1.188-.336s-.916.116-1.284.348c-.368.232-.656.568-.864 1.008-.2.44-.3.976-.3 1.608 0 .624.096 1.16.288 1.608.192.44.468.776.828 1.008.36.232.792.348 1.296.348.488 0 .908-.124 1.26-.372.36-.256.616-.636.768-1.14l1.224.408Zm4.063-4.02c.584 0 1.1.124 1.548.372.448.248.796.608 1.044 1.08.256.464.384 1.02.384 1.668 0 .648-.128 1.208-.384 1.68-.248.464-.596.82-1.044 1.068-.448.248-.964.372-1.548.372-.584 0-1.1-.124-1.548-.372A2.661 2.661 0 0 1 46.2 72.68c-.256-.472-.384-1.032-.384-1.68 0-.648.128-1.204.384-1.668a2.642 2.642 0 0 1 1.056-1.08c.448-.248.964-.372 1.548-.372Zm0 1.008c-.36 0-.668.084-.924.252-.248.16-.44.396-.576.708-.136.312-.204.696-.204 1.152 0 .448.068.832.204 1.152.136.312.328.552.576.72.256.16.564.24.924.24.36 0 .664-.08.912-.24.248-.168.44-.408.576-.72.136-.32.204-.704.204-1.152 0-.456-.068-.84-.204-1.152a1.551 1.551 0 0 0-.576-.708c-.248-.168-.552-.252-.912-.252Zm6.727 5.232c-.392 0-.756-.072-1.092-.216a1.75 1.75 0 0 1-.792-.696c-.2-.32-.3-.736-.3-1.248V68h1.284v3.636c0 .544.116.92.348 1.128.232.2.556.3.972.3.2 0 .392-.032.576-.096a1.52 1.52 0 0 0 .516-.324c.152-.152.268-.344.348-.576.088-.232.132-.504.132-.816V68h1.284v6h-1.128l-.06-.972a1.949 1.949 0 0 1-.84.828c-.352.176-.768.264-1.248.264Zm5.282-.12v-6h1.092l.12 1.08c.16-.392.396-.688.708-.888.32-.208.712-.312 1.176-.312.12 0 .24.012.36.036.12.016.22.044.3.084l-.18 1.128a1.5 1.5 0 0 0-.3-.072 2.019 2.019 0 0 0-.432-.036 1.47 1.47 0 0 0-.732.204c-.24.128-.44.324-.6.588-.152.264-.228.6-.228 1.008V74h-1.284Zm7.038.12c-.6 0-1.148-.116-1.644-.348a2.844 2.844 0 0 1-1.176-.984l.888-.768c.176.328.428.592.756.792.336.192.736.288 1.2.288.368 0 .66-.064.876-.192.216-.128.324-.308.324-.54a.563.563 0 0 0-.156-.396c-.096-.12-.284-.212-.564-.276l-1.26-.264c-.64-.128-1.096-.332-1.368-.612-.272-.288-.408-.652-.408-1.092 0-.328.096-.632.288-.912.192-.28.472-.504.84-.672.376-.176.824-.264 1.344-.264.6 0 1.112.108 1.536.324.424.208.748.508.972.9l-.888.744a1.484 1.484 0 0 0-.672-.708 1.918 1.918 0 0 0-.924-.24c-.256 0-.476.032-.66.096a.95.95 0 0 0-.42.264.59.59 0 0 0-.144.396c0 .16.06.3.18.42s.336.212.648.276l1.368.288c.576.112.98.304 1.212.576.24.264.36.588.36.972s-.1.724-.3 1.02c-.2.288-.488.512-.864.672-.376.16-.824.24-1.344.24Zm6.7 0c-.6 0-1.128-.124-1.584-.372a2.64 2.64 0 0 1-1.068-1.068c-.248-.472-.372-1.032-.372-1.68 0-.648.124-1.204.372-1.668a2.642 2.642 0 0 1 1.056-1.08 3.093 3.093 0 0 1 1.524-.372c.584 0 1.08.12 1.488.36.408.24.72.568.936.984.216.416.324.888.324 1.416 0 .144-.004.28-.012.408-.008.128-.02.24-.036.336h-4.824V70.4h4.26l-.636.192c0-.544-.136-.96-.408-1.248-.272-.296-.644-.444-1.116-.444-.344 0-.644.08-.9.24-.256.16-.452.4-.588.72-.136.312-.204.696-.204 1.152 0 .448.072.828.216 1.14.144.312.348.548.612.708.264.16.576.24.936.24.4 0 .724-.076.972-.228.248-.152.444-.364.588-.636l1.02.48c-.144.288-.34.54-.588.756-.24.208-.528.368-.864.48a3.473 3.473 0 0 1-1.104.168ZM40.6 81.88c.584 0 1.1.124 1.548.372.448.248.796.608 1.044 1.08.256.464.384 1.02.384 1.668 0 .648-.128 1.208-.384 1.68-.248.464-.596.82-1.044 1.068-.448.248-.964.372-1.548.372-.584 0-1.1-.124-1.548-.372a2.661 2.661 0 0 1-1.056-1.068c-.256-.472-.384-1.032-.384-1.68 0-.648.128-1.204.384-1.668a2.642 2.642 0 0 1 1.056-1.08c.448-.248.964-.372 1.548-.372Zm0 1.008c-.36 0-.668.084-.924.252-.248.16-.44.396-.576.708-.136.312-.204.696-.204 1.152 0 .448.068.832.204 1.152.136.312.328.552.576.72.256.16.564.24.924.24.36 0 .664-.08.912-.24.248-.168.44-.408.576-.72.136-.32.204-.704.204-1.152 0-.456-.068-.84-.204-1.152a1.551 1.551 0 0 0-.576-.708c-.248-.168-.552-.252-.912-.252ZM49.104 82h1.344l-2.388 6h-1.404l-2.4-6h1.404l1.704 4.884L49.104 82Zm5.044 6.12c-.6 0-1.128-.124-1.584-.372a2.64 2.64 0 0 1-1.068-1.068c-.248-.472-.372-1.032-.372-1.68 0-.648.124-1.204.372-1.668a2.642 2.642 0 0 1 1.056-1.08 3.093 3.093 0 0 1 1.524-.372c.584 0 1.08.12 1.488.36.408.24.72.568.936.984.216.416.324.888.324 1.416 0 .144-.004.28-.012.408-.008.128-.02.24-.036.336h-4.824V84.4h4.26l-.636.192c0-.544-.136-.96-.408-1.248-.272-.296-.644-.444-1.116-.444-.344 0-.644.08-.9.24-.256.16-.452.4-.588.72-.136.312-.204.696-.204 1.152 0 .448.072.828.216 1.14.144.312.348.548.612.708.264.16.576.24.936.24.4 0 .724-.076.972-.228.248-.152.444-.364.588-.636l1.02.48c-.144.288-.34.54-.588.756-.24.208-.528.368-.864.48a3.473 3.473 0 0 1-1.104.168Zm4.297-.12v-6h1.092l.12 1.08c.16-.392.396-.688.708-.888.32-.208.712-.312 1.176-.312.12 0 .24.012.36.036.12.016.22.044.3.084l-.18 1.128a1.5 1.5 0 0 0-.3-.072 2.019 2.019 0 0 0-.432-.036 1.47 1.47 0 0 0-.732.204c-.24.128-.44.324-.6.588-.152.264-.228.6-.228 1.008V88h-1.284Zm8.917-6h1.344l-2.388 6h-1.404l-2.4-6h1.404l1.704 4.884L67.362 82Zm3.087-1.008c-.28 0-.496-.068-.648-.204-.144-.144-.216-.344-.216-.6s.072-.452.216-.588c.152-.136.368-.204.648-.204.272 0 .48.068.624.204.152.136.228.332.228.588 0 .256-.076.456-.228.6-.144.136-.352.204-.624.204ZM71.085 82v6H69.8v-6h1.284Zm4.649 6.12c-.6 0-1.128-.124-1.584-.372a2.64 2.64 0 0 1-1.068-1.068c-.248-.472-.372-1.032-.372-1.68 0-.648.124-1.204.372-1.668a2.642 2.642 0 0 1 1.056-1.08 3.093 3.093 0 0 1 1.524-.372c.584 0 1.08.12 1.488.36.408.24.72.568.936.984.216.416.324.888.324 1.416 0 .144-.004.28-.012.408-.008.128-.02.24-.036.336h-4.824V84.4h4.26l-.636.192c0-.544-.136-.96-.408-1.248-.272-.296-.644-.444-1.116-.444-.344 0-.644.08-.9.24-.256.16-.452.4-.588.72-.136.312-.204.696-.204 1.152 0 .448.072.828.216 1.14.144.312.348.548.612.708.264.16.576.24.936.24.4 0 .724-.076.972-.228.248-.152.444-.364.588-.636l1.02.48c-.144.288-.34.54-.588.756-.24.208-.528.368-.864.48a3.473 3.473 0 0 1-1.104.168ZM87.51 82h1.392l-2.016 6h-1.404l-1.512-4.452L82.543 88h-1.404l-2.004-6h1.38l1.368 4.74L83.37 82h1.284l1.488 4.74L87.51 82Zm50.678-4.864v6.072h-1.116v-6.072h1.116Zm2.388 2.496V80.7h-5.904v-1.068h5.904ZM143.584 84v-5.928l.024-.552a4.272 4.272 0 0 1-.936.684c-.344.184-.7.316-1.068.396l-.24-1.116c.168-.024.364-.08.588-.168.224-.088.456-.2.696-.336.24-.136.46-.28.66-.432.2-.16.356-.316.468-.468h1.08V84h-1.272Zm5.837.12c-.704 0-1.284-.152-1.74-.456-.448-.304-.804-.744-1.068-1.32l1.2-.624c.12.384.3.7.54.948.248.24.612.36 1.092.36.336 0 .62-.06.852-.18.24-.128.424-.304.552-.528.128-.232.192-.508.192-.828 0-.336-.06-.616-.18-.84a1.164 1.164 0 0 0-.516-.504c-.224-.12-.504-.18-.84-.18-.232 0-.448.024-.648.072-.2.048-.38.124-.54.228-.16.096-.3.224-.42.384l-1.056-.204.48-4.368h4.608v1.104h-3.588l-.288 2.232-.024.132h.024c.184-.2.42-.356.708-.468a2.946 2.946 0 0 1 1.044-.168c.512 0 .952.108 1.32.324.368.208.656.5.864.876.208.376.312.812.312 1.308a2.9 2.9 0 0 1-.216 1.152c-.144.336-.348.62-.612.852a2.705 2.705 0 0 1-.924.528c-.344.112-.72.168-1.128.168Zm5.676-.12 5.184-7.92h1.104L156.213 84h-1.116Zm.312-8.04c.408 0 .76.092 1.056.276.304.184.536.44.696.768.168.328.252.716.252 1.164 0 .44-.084.828-.252 1.164-.16.328-.392.584-.696.768-.296.184-.648.276-1.056.276-.4 0-.752-.092-1.056-.276a1.877 1.877 0 0 1-.708-.768 2.678 2.678 0 0 1-.24-1.164c0-.448.08-.836.24-1.164.168-.328.404-.584.708-.768a1.999 1.999 0 0 1 1.056-.276Zm0 .936a.864.864 0 0 0-.84.588 1.887 1.887 0 0 0-.108.684c0 .264.036.492.108.684.072.192.18.336.324.432a.909.909 0 0 0 .516.144.93.93 0 0 0 .528-.144.864.864 0 0 0 .324-.432c.072-.192.108-.42.108-.684 0-.272-.036-.5-.108-.684a.864.864 0 0 0-.852-.588Zm5.664 2.808c.408 0 .76.092 1.056.276.304.184.536.444.696.78.168.328.252.712.252 1.152 0 .448-.084.836-.252 1.164-.16.328-.392.584-.696.768-.296.184-.648.276-1.056.276-.4 0-.752-.092-1.056-.276a1.877 1.877 0 0 1-.708-.768c-.16-.328-.24-.716-.24-1.164 0-.44.08-.824.24-1.152.168-.336.404-.596.708-.78a1.999 1.999 0 0 1 1.056-.276Zm0 .948c-.2 0-.372.048-.516.144a.864.864 0 0 0-.324.432 1.887 1.887 0 0 0-.108.684c0 .264.036.492.108.684.072.192.18.34.324.444a.909.909 0 0 0 .516.144.93.93 0 0 0 .528-.144.935.935 0 0 0 .324-.444c.072-.192.108-.42.108-.684 0-.264-.036-.492-.108-.684a.864.864 0 0 0-.324-.432.93.93 0 0 0-.528-.144Z"/>
  <defs>
    <filter id="a" width="250" height="207" x="0" y="0" color-interpolation-filters="sRGB" filterUnits="userSpaceOnUse">
      <feFlood flood-opacity="0" result="BackgroundImageFix"/>
      <feColorMatrix in="SourceAlpha" result="hardAlpha" values="0 0 0 0 0 0 0 0 0 0 0 0 0 0 0 0 0 0 127 0"/>
      <feMorphology in="SourceAlpha" operator="dilate" radius="2" result="effect1_dropShadow_10_1818"/>
      <feOffset/>
      <feGaussianBlur stdDeviation="10"/>
      <feComposite in2="hardAlpha" operator="out"/>
      <feColorMatrix values="0 0 0 0 0.566667 0 0 0 0 0.566667 0 0 0 0 0.566667 0 0 0 0.12 0"/>
      <feBlend in2="BackgroundImageFix" result="effect1_dropShadow_10_1818"/>
      <feBlend in="SourceGraphic" in2="effect1_dropShadow_10_1818" result="shape"/>
    </filter>
  </defs>
</svg>
