<svg width="18" height="19" fill="none" xmlns="http://www.w3.org/2000/svg"><path fill-rule="evenodd" clip-rule="evenodd" d="M6.545 0h5.182c.954 0 1.727.773 1.727 1.727v.864h2.591c.954 0 1.728.773 1.728 1.727v1.727c0 .954-.774 1.728-1.727 1.728h-.07l-.794 9.5c0 .954-.774 1.727-1.727 1.727H4.818c-.954 0-1.727-.773-1.724-1.656l-.798-9.571h-.069A1.727 1.727 0 0 1 .5 6.045V4.318c0-.954.773-1.727 1.727-1.727h2.591v-.864C4.818.773 5.591 0 6.545 0ZM4.818 4.318h-2.59v1.727h13.817V4.318H4.818Zm9.425 3.455H4.03l.79 9.5h8.636l.003-.072.785-9.428Zm-2.516-6.046v.864H6.545v-.864h5.182Z" fill="#BDBDCB"/></svg>