<svg xmlns="http://www.w3.org/2000/svg" width="70" height="70" fill="none" viewBox="0 0 70 70">
  <circle cx="35" cy="35" r="35" fill="#BEE1E6"/>
  <path fill="#006D77" d="m46.476 29.81.297.162.162.296a.866.866 0 0 0 1.52 0l.162-.296.297-.162a.868.868 0 0 0 0-1.52l-.297-.163-.162-.296a.867.867 0 0 0-1.52 0l-.162.296-.297.165a.867.867 0 0 0 0 1.52v-.002Zm.372-.84.472-.258a.095.095 0 0 0 .036-.036l.259-.473a.09.09 0 0 1 .08-.046.09.09 0 0 1 .08.046l.259.473a.096.096 0 0 0 .036.036l.473.259a.091.091 0 0 1 0 .16l-.473.259a.095.095 0 0 0-.036.036l-.258.472a.092.092 0 0 1-.16 0l-.26-.472a.088.088 0 0 0-.036-.036l-.472-.259a.092.092 0 0 1 0-.162v.002ZM22.05 38.212l.521.285.286.522a.908.908 0 0 0 1.593 0l.285-.522.521-.285a.908.908 0 0 0 0-1.594l-.521-.285-.286-.522a.907.907 0 0 0-1.593 0l-.285.522-.521.288a.908.908 0 0 0 0 1.594v-.004Zm.372-.914.686-.375a.137.137 0 0 0 .053-.053l.376-.687a.134.134 0 0 1 .233 0l.376.687c.012.022.03.04.053.053l.686.375a.133.133 0 0 1 0 .234l-.686.376a.13.13 0 0 0-.053.052l-.376.687a.133.133 0 0 1-.233 0l-.376-.686a.13.13 0 0 0-.053-.053l-.686-.376a.133.133 0 0 1 0-.234Zm11.897-.265c.218-.094.313-.124.445-.065.273.124.586.124.858 0 .133-.06.228-.03.447.065.16.08.336.127.516.136.073 0 .146-.01.216-.03a.387.387 0 0 0-.215-.745.82.82 0 0 1-.213-.074c-.244-.104-.614-.263-1.07-.058a.258.258 0 0 1-.221 0c-.452-.205-.825-.046-1.07.058a.902.902 0 0 1-.212.075.388.388 0 1 0-.214.743c.29.084.535-.021.733-.105Zm1.388.583h-1.029a.387.387 0 1 0 0 .775h1.027a.387.387 0 1 0 0-.775h.002Z"/>
  <path fill="#006D77" d="m42.943 42.967-.093-.037c-.027-.419-.07-.835-.129-1.242a.988.988 0 0 0-.536-.741l-1.438-.725a.982.982 0 0 0-.886 0 .962.962 0 0 0-.524.694 5.592 5.592 0 0 1-.057.267 3.526 3.526 0 0 1-.258-.347c-.295-.452-.456-.986-.541-1.408a20.794 20.794 0 0 0 1.848-1.808c.538-.586.934-1.291 1.23-2.057 2.858-.689 3.007-3.586 3.1-5.383a2.46 2.46 0 0 0-1.227-2.254c-.108-1.104-.431-2.385-.94-3.364a.57.57 0 0 0 .364-.3.556.556 0 0 0-.028-.543c-.808-1.303-2.3-2.421-4.051-3.06a.569.569 0 0 0-.362-.771c-.4-.12-.804-.22-1.214-.299a.655.655 0 0 0-.129-.387 1.006 1.006 0 0 0-.69-.38 9.724 9.724 0 0 0-2.373 0 1.01 1.01 0 0 0-.691.38.646.646 0 0 0-.12.5c-1.503.44-2.575 1.325-3.098 2.328a.075.075 0 0 1-.042.04 5.145 5.145 0 0 0-3.081 2.606.543.543 0 0 0 .573.777c-.265.795-.45 1.614-.555 2.445a2.462 2.462 0 0 0-1.263 2.277c.092 1.797.241 4.697 3.103 5.383.296.764.693 1.47 1.23 2.056.577.64 1.193 1.244 1.845 1.808-.111.548-.301 1.042-.543 1.412-.079.12-.165.237-.258.347a5.094 5.094 0 0 1-.057-.267.962.962 0 0 0-.524-.694.981.981 0 0 0-.887 0l-1.44.727a.986.986 0 0 0-.535.738c-.058.407-.101.824-.129 1.242l-.092.037c-2.749 1.156-4.939 3.718-6.167 7.216a.645.645 0 0 0 .607.856h26.617a.646.646 0 0 0 .606-.856c-1.227-3.498-3.418-6.06-6.165-7.213Zm-5.188-22.085c.037.171.164.31.332.361 1.638.506 3.065 1.462 3.887 2.594a.504.504 0 0 0-.352.762c.493.792.84 1.971.99 3.025a22.203 22.203 0 0 0-1.186-.17c-.275-.845-.778-1.637-1.51-2.369a.387.387 0 0 0-.66.274c0 .18-.022.36-.065.536-.444-.418-.919-.8-1.42-1.145a27.696 27.696 0 0 0-.36-1.826c-.214-.952-.379-1.69-.31-2.567.234.046.474.102.722.168a.48.48 0 0 0-.068.357Zm.229 6.293a20.336 20.336 0 0 0-.083-1.373c.408.322.793.67 1.152 1.045a.388.388 0 0 0 .602-.054c.107-.174.19-.36.247-.557.268.344.49.722.66 1.125a57.962 57.962 0 0 0-2.578-.185Zm-3.879-7.585a8.926 8.926 0 0 1 2.182 0 .35.35 0 0 1 .129.042c-.244 1.313-.03 2.26.237 3.46.226 1.008.5 2.233.554 4.048a53.343 53.343 0 0 0-2.014-.045c-.525 0-1.227.014-2.01.045.054-1.815.328-3.04.554-4.048.268-1.197.48-2.148.237-3.46a.348.348 0 0 1 .131-.042Zm-1.698 7.585a58.09 58.09 0 0 0-2.59.186c.147-.42.36-.814.629-1.168.278-.353.742-.789 1.372-.856a.387.387 0 0 0 .28-.171c.15-.227.336-.426.551-.59-.14.86-.22 1.728-.242 2.599Zm-2.127-4.366a.843.843 0 0 0 .503-.42c.333-.634 1.154-1.468 2.515-1.91.045.824-.114 1.537-.317 2.445-.047.211-.096.432-.146.666a2.96 2.96 0 0 0-1.28 1.002c-.642.12-1.232.505-1.718 1.122-.395.52-.69 1.11-.866 1.739-.408.049-.799.103-1.157.163.113-.723.337-1.647.645-2.393a.467.467 0 0 0-.07-.482.477.477 0 0 0-.462-.161 4.362 4.362 0 0 1 2.352-1.771Zm-2.374 5.578c2.195-.377 5.636-.517 7.287-.517 1.652 0 5.09.14 7.287.517.42.071.797.3 1.056.638a95.972 95.972 0 0 0-16.683-.005 1.686 1.686 0 0 1 1.053-.633Zm-1.402 1.747a1.72 1.72 0 0 1 .012-.306 95.173 95.173 0 0 1 17.355 0c.013.101.017.203.011.304-.124 2.42-.47 4.605-3.306 4.786a9.72 9.72 0 0 1-3.293-.348 7.625 7.625 0 0 0-4.178 0 9.718 9.718 0 0 1-3.293.348c-2.837-.178-3.183-2.365-3.308-4.784Zm4.132 6.956a5.342 5.342 0 0 1-.903-1.399h.03a10.408 10.408 0 0 0 3.555-.376 6.843 6.843 0 0 1 3.752 0 10.49 10.49 0 0 0 3.556.376h.034c-.227.51-.532.983-.904 1.399-1.065 1.159-1.726 1.731-2.804 2.578a2.842 2.842 0 0 1-3.513 0c-1.078-.847-1.739-1.42-2.804-2.578h.001Zm1.38 4.167c.252-.398.44-.832.559-1.287.124.1.252.201.387.308a3.612 3.612 0 0 0 4.47 0l.383-.304c.12.453.308.886.558 1.283.185.285.404.546.652.778a16.747 16.747 0 0 1-1.17 2.566c-1.778 1.036-3.537 1.032-5.324-.006a16.832 16.832 0 0 1-1.168-2.56c.249-.232.468-.493.652-.778h.001Zm-.3 9.004h-9.644c1.126-3.094 3.043-5.376 5.43-6.473-.018.837.035 1.673.157 2.501.174 1.115.562 2.476 1.427 2.622.045.008.09.011.136.011.576 0 1.572-.51 3.12-1.431-.139.597-.57 2.526-.627 2.77h.002Zm-1.226-2.608c-.994.516-1.248.499-1.273.495-.2-.034-.575-.588-.791-1.977-.202-1.297-.199-2.932.008-4.372a.211.211 0 0 1 .117-.157l1.44-.727a.22.22 0 0 1 .194 0 .194.194 0 0 1 .106.14c.292 1.592 1.406 3.824 2.307 5.117a.209.209 0 0 1 .04.13 7.82 7.82 0 0 0-.026.092.21.21 0 0 1-.076.08l-.183.11c-.52.311-1.232.74-1.864 1.069h.001Zm2.02 2.608c.044-.193.674-3.005.836-3.615a.992.992 0 0 0-.068-.84 5.413 5.413 0 0 0 3.823.004.99.99 0 0 0-.06.835c.162.611.793 3.422.836 3.616H32.51Zm5.343-3.788a.21.21 0 0 1-.076-.08 4.68 4.68 0 0 0-.026-.093c0-.047.013-.092.04-.13.9-1.291 2.015-3.526 2.307-5.118a.19.19 0 0 1 .106-.14.211.211 0 0 1 .193.001l1.44.727c.063.031.106.09.117.158.207 1.44.21 3.075.008 4.372-.216 1.39-.59 1.944-.79 1.977-.026.004-.28.022-1.274-.495a36.788 36.788 0 0 1-1.863-1.07l-.182-.11Zm.819 3.788c-.055-.243-.488-2.172-.627-2.77 1.55.921 2.545 1.432 3.12 1.432a.88.88 0 0 0 .136-.011c.867-.147 1.254-1.508 1.426-2.622.123-.828.176-1.665.158-2.502 2.389 1.098 4.304 3.379 5.43 6.473h-9.643Z"/>
</svg>
